HIERARCHY
ROOT Hips
{
	OFFSET 0.00000 0.00000 0.00000
	CHANNELS 6 Xposition Yposition Zposition Zrotation Yrotation Xrotation 
	JOINT LHipJoint
	{
		OFFSET 0 0 0
		CHANNELS 3 Zrotation Yrotation Xrotation
		JOINT LeftHip
		{
			OFFSET 1.56857 -1.73443 1.15205
			CHANNELS 3 Zrotation Yrotation Xrotation
			JOINT LeftKnee
			{
				OFFSET 2.39362 -6.57643 0.00000
				CHANNELS 3 Zrotation Yrotation Xrotation
				JOINT LeftAnkle
				{
					OFFSET 2.50952 -6.89485 0.00000
					CHANNELS 3 Zrotation Yrotation Xrotation
					JOINT LeftToe
					{
						OFFSET 0.17171 -0.47178 1.88682
						CHANNELS 3 Zrotation Yrotation Xrotation
						End Site
						{
							OFFSET 0.00000 -0.00000 0.98146
						}
					}
				}
			}
		}
	}
	JOINT RHipJoint
	{
		OFFSET 0 0 0
		CHANNELS 3 Zrotation Yrotation Xrotation
		JOINT RightHip
		{
			OFFSET -1.28153 -1.73443 1.15205
			CHANNELS 3 Zrotation Yrotation Xrotation
			JOINT RightKnee
			{
				OFFSET -2.26861 -6.23296 0.00000
				CHANNELS 3 Zrotation Yrotation Xrotation
				JOINT RightAnkle
				{
					OFFSET -2.54143 -6.98254 0.00000
					CHANNELS 3 Zrotation Yrotation Xrotation
					JOINT RightToe
					{
						OFFSET -0.23309 -0.64041 1.93119
						CHANNELS 3 Zrotation Yrotation Xrotation
						End Site
						{
							OFFSET -0.00000 -0.00000 1.02013
						}
					}
				}
			}
		}
	}
	JOINT lowerback
	{
		OFFSET 0 0 0
		CHANNELS 3 Zrotation Yrotation Xrotation
		JOINT Chest
		{
			OFFSET -0.07096 2.10460 -0.27878
			CHANNELS 3 Zrotation Yrotation Xrotation
			JOINT Chest2
			{
				OFFSET -0.00826 2.13662 -0.08279
				CHANNELS 3 Zrotation Yrotation Xrotation
				JOINT lowerneck
				{
					OFFSET 0 0 0
					CHANNELS 3 Zrotation Yrotation Xrotation
					JOINT Neck
					{
						OFFSET 0.03239 1.77799 0.24435
						CHANNELS 3 Zrotation Yrotation Xrotation
						JOINT Head
						{
							OFFSET 0.01026 1.74194 -0.49664
							CHANNELS 3 Zrotation Yrotation Xrotation
							End Site
							{
								OFFSET 0.00170 1.83057 -0.19653
							}
						}
					}
				}
				JOINT LeftCollar
				{
					OFFSET 0 0 0
					CHANNELS 3 Zrotation Yrotation Xrotation
					JOINT LeftShoulder
					{
						OFFSET 3.19178 1.35907 -0.31412
CHANNELS 3 Zrotation Xrotation Yrotation
						JOINT LeftElbow
						{
OFFSET 0 -4.852470 -0.000000
CHANNELS 3 Zrotation Xrotation Yrotation
							JOINT LeftWrist
							{
OFFSET 0 -3.555840 0.000000
CHANNELS 3 Zrotation Xrotation Yrotation
								JOINT lhand
								{
									OFFSET 0 0 0
CHANNELS 3 Zrotation Xrotation Yrotation
									JOINT LFingers
									{
OFFSET 0 -0.693200 0.000000
CHANNELS 3 Zrotation Xrotation Yrotation
										End Site
										{
OFFSET 0 -0.558880 0.000000
										}
									}
								}
								JOINT LThumb
								{
OFFSET 0 0.000000 0.000000
CHANNELS 3 Zrotation Xrotation Yrotation
									End Site
									{
OFFSET 0 -0.567410 0.567410
									}
								}
							}
						}
					}
				}
				JOINT RightCollar
				{
					OFFSET 0 0 0
					CHANNELS 3 Zrotation Yrotation Xrotation
					JOINT RightShoulder
					{
						OFFSET -3.28999 1.24191 -0.26899
CHANNELS 3 Zrotation Xrotation Yrotation
						JOINT RightElbow
						{
OFFSET 0 -4.644620 0.000000
CHANNELS 3 Zrotation Xrotation Yrotation
							JOINT RightWrist
							{
OFFSET 0 -3.407030 0.000000
CHANNELS 3 Zrotation Xrotation Yrotation
								JOINT rhand
								{
									OFFSET 0 0 0
CHANNELS 3 Zrotation Xrotation Yrotation
									JOINT RFingers
									{
OFFSET 0 -0.619580 0.000000
CHANNELS 3 Zrotation Xrotation Yrotation
										End Site
										{
OFFSET 0 -0.499520 0.000000
										}
									}
								}
								JOINT RThumb
								{
OFFSET 0 0.000000 0.000000
CHANNELS 3 Zrotation Xrotation Yrotation
									End Site
									{
OFFSET 0 -0.507150 0.507150
									}
								}
							}
						}
					}
				}
			}
		}
	}
}
MOTION
Frames: 8
Frame Time: 0.008333333333333333
14.007334 16.936880 -0.115441 131.048083 68.721382 133.764569 0.000000 0.000000 0.000000 -29.555461 3.119966 29.197795 9.479884 17.090383 57.711582 0.267501 10.430493 11.088045 0.057732 1.517373 4.174306 0.000000 0.000000 0.000000 -3.825175 -0.737974 -30.820370 -0.424889 -4.173384 11.566469 -0.959244 -1.215448 -18.985175 -0.062795 -1.585290 4.361446 -20.512249 -4.404100 9.720173 -1.975175 -7.776684 1.506787 9.908520 -3.709412 -1.363178 2.625457 2.338539 -25.518973 -1.522783 2.902525 25.723400 -0.484067 1.380386 12.906296 0.000000 0.000000 0.000000 21.106281 -1.047383 -60.012071 130.427942 -52.820125 94.166861 61.069237 -50.618620 37.145913 0.000000 0.000000 0.000000 -7.125000 0.000000 0.000000 13.355703 -26.244970 18.213675 0.000000 0.000000 0.000000 -29.289498 55.582286 36.788966 -67.850056 -58.062518 -40.942402 -24.050493 -6.946910 30.144078 0.000000 0.000000 0.000000 7.125000 0.000000 0.000000 8.706853 62.226459 -3.659575
14.152802 16.905239 -0.118924 130.965250 68.713646 133.488708 0.000000 0.000000 0.000000 -29.610584 3.113499 29.165084 9.804251 17.290650 58.821147 0.277103 9.434979 10.752136 0.045195 1.354418 3.724918 0.000000 0.000000 0.000000 -3.790226 -0.852622 -30.618809 -0.454166 -4.318752 11.976008 -0.956632 -1.027345 -18.880825 -0.074586 -1.748071 4.810137 -20.492747 -4.309601 9.855218 -2.010024 -7.683652 1.502160 9.875859 -3.649937 -1.481333 2.702171 2.288118 -25.356018 -1.569150 2.818075 25.658701 -0.531901 1.346357 12.848089 0.000000 0.000000 0.000000 21.108744 -0.477949 -60.152614 130.222625 -52.904674 94.003384 60.553010 -49.577660 36.698640 0.000000 0.000000 0.000000 -7.125000 0.000000 0.000000 13.300008 -25.417609 18.054626 0.000000 0.000000 0.000000 -29.061695 55.304758 36.514299 -67.837569 -58.060255 -40.931805 -24.227178 -6.714331 30.266935 0.000000 0.000000 0.000000 7.125000 0.000000 0.000000 8.576360 62.396677 -3.639725
14.297331 16.873525 -0.123978 130.877421 68.714075 133.201634 0.000000 0.000000 0.000000 -29.671471 3.120790 29.128231 10.134188 17.477512 59.926666 0.281866 8.711759 10.508677 0.035302 1.037213 2.852167 0.000000 0.000000 0.000000 -3.736948 -1.025292 -30.425341 -0.487210 -4.470531 12.405375 -0.950462 -0.780403 -18.725217 -0.085219 -1.878434 5.169864 -20.451784 -4.207838 9.996259 -2.037294 -7.578958 1.507015 9.838628 -3.586013 -1.597185 2.731099 2.247276 -25.230672 -1.584598 2.756013 25.603154 -0.555191 1.321225 12.800217 0.000000 0.000000 0.000000 21.086077 0.068573 -60.278154 129.986183 -53.000058 93.814570 60.011666 -48.507292 36.316383 0.000000 0.000000 0.000000 -7.125000 0.000000 0.000000 13.197125 -24.638753 17.830059 0.000000 0.000000 0.000000 -28.832819 54.999907 36.214538 -67.818379 -58.056748 -40.915517 -24.352606 -6.522152 30.358922 0.000000 0.000000 0.000000 7.125000 0.000000 0.000000 8.486474 62.522559 -3.627224
14.440883 16.841735 -0.130670 130.784389 68.723005 132.902888 0.000000 0.000000 0.000000 -29.738359 3.142407 29.087063 10.469923 17.650416 61.027973 0.281592 8.272022 10.361468 0.028163 0.559418 1.538653 0.000000 0.000000 0.000000 -3.664587 -1.258369 -30.240297 -0.524174 -4.628983 12.855384 -0.940586 -0.472205 -18.516244 -0.094646 -1.975048 5.436969 -20.388478 -4.098514 10.143543 -2.056671 -7.462121 1.521741 9.796640 -3.517458 -1.710639 2.710279 2.216406 -25.144481 -1.567857 2.717258 25.557136 -0.552927 1.305355 12.763104 0.000000 0.000000 0.000000 21.037248 0.591242 -60.388076 129.717336 -53.106721 93.599379 59.444173 -47.406309 36.001817 0.000000 0.000000 0.000000 -7.125000 0.000000 0.000000 13.045116 -23.910394 17.537283 0.000000 0.000000 0.000000 -28.602827 54.666609 35.888654 -67.792211 -58.051947 -40.893304 -24.424668 -6.372032 30.418771 0.000000 0.000000 0.000000 7.125000 0.000000 0.000000 8.438864 62.602283 -3.622373
14.584436 16.809945 -0.137361 130.691357 68.731935 132.604142 0.000000 0.000000 0.000000 -29.805247 3.164023 29.045895 10.805658 17.823321 62.129279 0.281319 7.832285 10.214259 0.021024 0.081623 0.225140 0.000000 0.000000 0.000000 -3.592227 -1.491446 -30.055254 -0.561138 -4.787436 13.305394 -0.930711 -0.164006 -18.307271 -0.104074 -2.071662 5.704075 -20.325171 -3.989189 10.290826 -2.076049 -7.345284 1.536466 9.754651 -3.448903 -1.824093 2.689459 2.185537 -25.058290 -1.551117 2.678503 25.511117 -0.550664 1.289484 12.725991 0.000000 0.000000 0.000000 20.988419 1.113911 -60.497998 129.448490 -53.213384 93.384187 58.876679 -46.305326 35.687250 0.000000 0.000000 0.000000 -7.125000 0.000000 0.000000 12.893106 -23.182036 17.244507 0.000000 0.000000 0.000000 -28.372835 54.333312 35.562769 -67.766043 -58.047146 -40.871091 -24.496730 -6.221913 30.478619 0.000000 0.000000 0.000000 7.125000 0.000000 0.000000 8.391253 62.682007 -3.617522
14.727988 16.778155 -0.144052 130.598326 68.740865 132.305396 0.000000 0.000000 0.000000 -29.872136 3.185639 29.004727 11.141393 17.996226 63.230586 0.281045 7.392549 10.067050 0.013885 -0.396172 -1.088373 0.000000 0.000000 0.000000 -3.519866 -1.724522 -29.870210 -0.598102 -4.945888 13.755404 -0.920836 0.144193 -18.098298 -0.113502 -2.168275 5.971180 -20.261865 -3.879864 10.438110 -2.095426 -7.228447 1.551192 9.712662 -3.380348 -1.937547 2.668639 2.154667 -24.972099 -1.534376 2.639748 25.465099 -0.548400 1.273614 12.688877 0.000000 0.000000 0.000000 20.939589 1.636580 -60.607919 129.179643 -53.320047 93.168995 58.309186 -45.204343 35.372684 0.000000 0.000000 0.000000 -7.125000 0.000000 0.000000 12.741096 -22.453677 16.951730 0.000000 0.000000 0.000000 -28.142842 54.000015 35.236884 -67.739874 -58.042345 -40.848877 -24.568792 -6.071793 30.538468 0.000000 0.000000 0.000000 7.125000 0.000000 0.000000 8.343643 62.761730 -3.612672
14.870582 16.746015 -0.151550 130.403508 68.749667 131.918536 0.000000 0.000000 0.000000 -29.965774 3.234110 28.925416 11.481183 18.156229 64.327346 0.281297 7.044502 9.966048 0.015768 -0.756148 -2.078368 0.000000 0.000000 0.000000 -3.473156 -1.948975 -29.698454 -0.637964 -5.105591 14.211117 -0.896201 0.416608 -17.753310 -0.125079 -2.274846 6.266216 -20.220891 -3.760571 10.598611 -2.108353 -7.106106 1.552023 9.690108 -3.306160 -2.071650 2.615588 2.124943 -24.901614 -1.520779 2.616641 25.436271 -0.538996 1.260935 12.661733 0.000000 0.000000 0.000000 20.860189 2.158875 -60.712208 128.904567 -53.426897 92.948241 57.783248 -44.275730 35.141217 0.000000 0.000000 0.000000 -7.125000 0.000000 0.000000 12.573602 -21.848548 16.652024 0.000000 0.000000 0.000000 -27.972367 53.657544 34.957709 -67.705549 -58.036014 -40.819746 -24.679150 -5.946729 30.520429 0.000000 0.000000 0.000000 7.125000 0.000000 0.000000 8.202310 62.772144 -3.553925
15.012095 16.713478 -0.159958 130.093816 68.758323 131.432234 0.000000 0.000000 0.000000 -30.089600 3.312888 28.803057 11.825550 18.301672 65.418977 0.282143 6.799933 9.917194 0.027832 -0.983155 -2.703247 0.000000 0.000000 0.000000 -3.455395 -2.163694 -29.541693 -0.681097 -5.266705 14.673266 -0.854909 0.648640 -17.254819 -0.139084 -2.392653 6.592772 -20.205120 -3.630028 10.774028 -2.113999 -6.977553 1.537173 9.689486 -3.225616 -2.229058 2.526163 2.096511 -24.848854 -1.510729 2.611193 25.426843 -0.521534 1.251855 12.645838 0.000000 0.000000 0.000000 20.746287 2.680748 -60.810140 128.622462 -53.533958 92.721208 57.304210 -43.541650 35.003535 0.000000 0.000000 0.000000 -7.125000 0.000000 0.000000 12.388633 -21.382494 16.344497 0.000000 0.000000 0.000000 -27.869062 53.304720 34.731249 -67.662018 -58.027954 -40.782807 -24.832727 -5.849941 30.414487 0.000000 0.000000 0.000000 7.125000 0.000000 0.000000 7.955204 62.704335 -3.434352
